<mxfile host="Electron" modified="2024-07-26T07:34:25.057Z" agent="Mozilla/5.0 (Macintosh; Intel Mac OS X 10_15_7) AppleWebKit/537.36 (KHTML, like Gecko) draw.io/24.6.4 Chrome/124.0.6367.207 Electron/30.0.6 Safari/537.36" etag="LoQaal9_hWKdfi4L4t9J" version="24.6.4" type="device">
  <diagram name="第 1 页" id="xUYOiBY1EcV_InfWFIAk">
    <mxGraphModel dx="954" dy="727" grid="1" gridSize="10" guides="1" tooltips="1" connect="1" arrows="1" fold="1" page="1" pageScale="1" pageWidth="827" pageHeight="1169" math="0" shadow="0">
      <root>
        <mxCell id="0" />
        <mxCell id="1" parent="0" />
        <mxCell id="a9L1w85xchsYMK7xmOf9-2" value="2" style="text;html=1;align=center;verticalAlign=middle;resizable=0;points=[];autosize=1;strokeColor=none;fillColor=none;" vertex="1" parent="1">
          <mxGeometry x="240" y="280" width="30" height="30" as="geometry" />
        </mxCell>
        <mxCell id="a9L1w85xchsYMK7xmOf9-3" value="" style="endArrow=none;html=1;rounded=0;" edge="1" parent="1">
          <mxGeometry width="50" height="50" relative="1" as="geometry">
            <mxPoint x="280" y="294.5" as="sourcePoint" />
            <mxPoint x="360" y="294.5" as="targetPoint" />
          </mxGeometry>
        </mxCell>
        <mxCell id="a9L1w85xchsYMK7xmOf9-5" value="2" style="text;html=1;align=center;verticalAlign=middle;resizable=0;points=[];autosize=1;strokeColor=none;fillColor=none;" vertex="1" parent="1">
          <mxGeometry x="360" y="280" width="30" height="30" as="geometry" />
        </mxCell>
        <mxCell id="a9L1w85xchsYMK7xmOf9-8" value="" style="endArrow=none;html=1;rounded=0;" edge="1" parent="1">
          <mxGeometry width="50" height="50" relative="1" as="geometry">
            <mxPoint x="390" y="290" as="sourcePoint" />
            <mxPoint x="440" y="240" as="targetPoint" />
          </mxGeometry>
        </mxCell>
        <mxCell id="a9L1w85xchsYMK7xmOf9-9" value="5" style="text;html=1;align=center;verticalAlign=middle;resizable=0;points=[];autosize=1;strokeColor=none;fillColor=none;" vertex="1" parent="1">
          <mxGeometry x="440" y="210" width="30" height="30" as="geometry" />
        </mxCell>
        <mxCell id="a9L1w85xchsYMK7xmOf9-11" value="preDiff=0" style="text;html=1;align=center;verticalAlign=middle;resizable=0;points=[];autosize=1;strokeColor=none;fillColor=none;" vertex="1" parent="1">
          <mxGeometry x="290" y="298" width="70" height="30" as="geometry" />
        </mxCell>
        <mxCell id="a9L1w85xchsYMK7xmOf9-13" value="curDiff=3" style="text;html=1;align=center;verticalAlign=middle;resizable=0;points=[];autosize=1;strokeColor=none;fillColor=none;" vertex="1" parent="1">
          <mxGeometry x="420" y="258" width="70" height="30" as="geometry" />
        </mxCell>
      </root>
    </mxGraphModel>
  </diagram>
</mxfile>
